<?xml version="1.0" standalone="no"?>
<!DOCTYPE svg PUBLIC "-//W3C//DTD SVG 20010904//EN"
 "http://www.w3.org/TR/2001/REC-SVG-20010904/DTD/svg10.dtd">
<svg version="1.0" xmlns="http://www.w3.org/2000/svg"
 width="1254.000000pt" height="1254.000000pt" viewBox="0 0 1254.000000 1254.000000"
 preserveAspectRatio="xMidYMid meet">

<g transform="translate(0.000000,1254.000000) scale(0.100000,-0.100000)"
fill="#000000" stroke="none">
<path d="M6355 9394 c-44 -7 -100 -18 -125 -23 -25 -6 -77 -10 -116 -11 -60 0
-77 -4 -110 -27 -93 -64 -139 -93 -148 -93 -20 0 -173 -96 -245 -153 -106 -85
-247 -230 -304 -313 -83 -120 -142 -217 -161 -264 -23 -60 -75 -134 -108 -157
-18 -11 -30 -29 -32 -48 -32 -229 -34 -235 -91 -235 -27 0 -47 6 -56 17 -8 9
-13 18 -11 20 1 1 2 13 1 26 0 21 -1 21 -9 2 l-9 -20 0 20 c-1 32 10 65 20 59
5 -3 9 4 9 16 0 28 44 72 65 64 13 -5 14 -2 5 21 -5 14 -17 33 -25 41 -8 9
-15 27 -14 42 0 25 1 25 10 7 8 -17 9 -16 5 8 -2 15 0 30 5 33 4 2 6 11 2 19
-3 8 0 15 7 15 7 0 10 7 6 16 -3 8 -2 12 4 9 6 -3 10 -2 10 4 0 5 3 18 6 28 5
15 4 16 -6 3 -10 -13 -11 -12 -6 3 3 10 6 21 6 23 0 3 4 3 9 0 5 -3 14 8 20
24 6 18 6 28 1 25 -14 -8 -13 0 6 43 8 20 17 68 20 106 3 52 9 75 24 91 20 21
26 59 14 89 -9 24 -18 20 -53 -30 -18 -25 -50 -61 -70 -80 -21 -19 -44 -47
-52 -62 -7 -15 -27 -49 -43 -77 -76 -130 -121 -250 -171 -460 -27 -114 -33
-159 -33 -240 1 -55 -5 -122 -12 -150 -10 -40 -10 -63 0 -120 7 -38 14 -106
15 -150 2 -44 11 -111 21 -150 l19 -70 153 -3 c83 -1 152 1 152 5 0 5 -9 22
-20 40 -33 54 -54 141 -41 170 9 20 17 24 44 21 26 -2 36 -10 51 -41 10 -21
21 -64 25 -95 4 -31 13 -67 19 -79 l13 -23 387 -2 387 -3 2 -25 c0 -14 -5 -35
-13 -47 l-14 -23 -729 0 -728 0 -6 -72 c-3 -39 -3 -91 0 -115 10 -73 -40 -120
-80 -75 -14 15 -17 42 -19 133 -1 104 -2 108 -7 42 -3 -40 -11 -77 -17 -83
-26 -26 -83 1 -165 77 -76 73 -286 292 -474 497 -80 87 -223 218 -169 156 36
-43 363 -409 509 -570 139 -153 311 -345 473 -527 l83 -93 499 0 499 0 256
-273 c233 -249 259 -273 284 -269 59 8 121 -50 121 -113 0 -77 -82 -131 -153
-101 -46 19 -70 56 -72 110 -1 42 -7 50 -239 295 l-239 251 -121 1 c-66 1
-285 1 -485 0 -200 -1 -372 1 -381 4 -10 3 -64 58 -121 123 -123 139 -479 536
-772 860 l-211 232 -258 0 -258 0 0 -23 c0 -45 -32 -116 -72 -162 -44 -50 -97
-81 -161 -95 l-42 -9 53 3 c36 2 73 14 122 40 38 20 76 36 84 36 9 0 12 7 9
19 -3 12 4 28 18 42 21 21 27 22 142 15 66 -3 161 -6 211 -6 l91 0 105 -118
c232 -262 836 -932 914 -1014 81 -86 96 -95 164 -97 12 -1 22 -5 22 -11 0 -5
-26 -10 -57 -10 -32 -1 -69 -7 -83 -15 -14 -8 -35 -14 -47 -15 -14 0 -23 -6
-23 -15 0 -9 -10 -26 -23 -39 -22 -22 -32 -24 -228 -31 -146 -5 -218 -3 -250
5 -39 10 -74 42 -314 286 -148 151 -274 274 -279 274 -5 0 11 -21 35 -48 24
-26 144 -156 267 -290 l224 -242 757 0 758 0 199 -207 c182 -191 202 -208 239
-213 77 -11 115 -49 115 -113 0 -31 -7 -46 -34 -73 -28 -28 -42 -34 -76 -34
-34 0 -48 6 -76 34 -28 28 -34 42 -34 76 0 40 -6 48 -187 240 l-188 199 -760
1 -760 0 -175 192 c-96 105 -217 236 -269 290 l-93 98 -448 0 -447 0 -6 -55
c-9 -87 -54 -159 -137 -217 -46 -32 10 -6 62 29 28 18 59 33 69 33 14 0 19 7
19 30 0 19 7 33 19 40 13 6 160 10 409 10 l388 0 85 -88 c46 -48 138 -145 204
-217 65 -71 153 -165 194 -207 l76 -78 351 0 c414 0 384 9 384 -117 0 -65 -3
-83 -18 -96 -42 -38 -75 -14 -83 60 -6 58 -6 58 -8 -22 -1 -44 -5 -85 -9 -92
-13 -21 -61 -33 -128 -33 -40 0 -63 -4 -59 -10 4 -6 -98 -11 -287 -13 -161 -1
70 -3 514 -5 l807 -2 25 25 c39 39 98 35 142 -9 44 -44 45 -83 4 -129 -16 -19
-43 -37 -59 -40 -38 -8 -88 9 -102 34 -10 19 -34 19 -973 19 l-964 -1 -11 -57
c-22 -113 -87 -193 -188 -232 -26 -11 -41 -19 -33 -20 31 -1 117 35 159 67 24
18 50 33 58 33 7 0 13 11 13 24 0 53 -32 51 677 48 432 -2 493 -4 507 -18 14
-13 16 -55 16 -308 0 -218 -3 -296 -12 -309 -12 -15 -101 -17 -1039 -23
l-1027 -7 -5 -53 c-8 -75 -41 -142 -94 -191 -58 -54 -49 -56 12 -3 31 27 56
40 75 40 22 0 28 4 24 15 -4 8 1 26 10 40 l16 25 1298 3 1297 2 165 28 c486
81 998 248 1503 491 150 72 377 192 392 208 7 8 6 8 -4 3 -10 -6 -12 -4 -7 4
5 7 14 10 22 7 8 -3 13 -1 11 5 -1 6 8 15 21 20 15 6 21 5 17 -2 -10 -15 93
43 116 66 11 11 32 35 47 53 17 21 41 36 65 42 34 7 36 6 25 -8 -7 -8 6 -3 30
13 39 26 58 44 30 30 -7 -4 9 14 35 40 39 39 53 46 77 43 18 -3 37 3 52 15 13
10 16 16 8 12 -8 -4 -6 2 6 12 11 10 29 31 39 47 17 26 67 56 105 62 8 2 24
15 35 30 49 68 97 111 136 124 30 10 67 39 124 96 58 59 93 86 122 94 26 8 45
21 51 36 6 12 35 40 64 62 29 22 82 68 118 104 36 36 85 77 110 91 27 16 58
46 78 77 18 28 50 61 70 74 54 35 117 97 135 132 19 37 91 104 112 104 8 0 23
17 34 38 11 21 82 103 158 182 126 131 183 198 183 216 0 4 24 34 53 68 55 63
131 162 159 206 9 14 36 47 61 72 25 26 49 57 53 70 3 13 9 25 13 28 38 31
113 129 121 158 5 21 28 57 50 81 40 43 43 49 41 86 -1 12 13 32 34 49 36 30
44 46 23 46 -16 0 -68 -50 -68 -66 0 -6 -12 -14 -27 -17 -21 -4 -33 -16 -45
-44 -9 -22 -28 -50 -43 -64 -79 -72 -95 -89 -95 -102 0 -8 -21 -37 -47 -64
-63 -66 -93 -101 -93 -111 0 -4 -12 -19 -27 -34 -16 -14 -53 -52 -83 -84 -73
-77 -128 -131 -176 -175 -21 -19 -91 -89 -155 -155 -164 -168 -357 -354 -398
-385 -20 -15 -75 -64 -122 -110 -90 -88 -189 -181 -305 -287 -86 -78 -293
-245 -325 -262 -13 -7 -53 -39 -89 -70 -36 -31 -85 -68 -110 -82 -25 -14 -54
-36 -65 -48 -11 -12 -50 -37 -86 -55 -36 -19 -80 -46 -97 -60 -17 -15 -36 -24
-42 -20 -6 3 -13 -1 -17 -10 -3 -9 -24 -25 -47 -35 -56 -25 -178 -115 -168
-125 4 -5 2 -5 -5 -2 -6 4 -58 -24 -115 -61 -514 -339 -1080 -621 -1572 -784
-250 -82 -323 -96 -648 -123 -32 -3 -58 -1 -58 4 0 5 35 17 78 26 122 27 404
109 552 161 696 241 1417 642 2120 1177 164 125 189 147 275 233 44 44 106 99
137 122 31 23 72 60 89 82 18 23 54 51 81 63 30 14 53 33 64 53 9 17 35 42 56
55 21 13 50 43 64 67 14 23 42 53 64 67 26 16 40 34 45 55 5 21 20 39 45 56
26 17 43 38 51 63 6 20 31 56 54 81 24 25 46 56 50 70 4 14 14 33 22 42 9 10
13 24 10 32 -3 8 -1 17 6 20 7 2 -257 5 -585 5 l-598 1 -16 25 c-15 23 -15 27
0 50 l16 25 370 0 370 0 12 25 c6 14 15 25 20 25 4 0 8 20 8 45 0 51 23 105
44 105 8 0 21 3 30 6 9 3 16 1 16 -6 0 -6 -6 -8 -12 -4 -7 4 -3 -4 9 -17 20
-22 21 -29 11 -62 -11 -37 -43 -57 -67 -43 -10 6 1 -42 14 -64 4 -6 65 -10
159 -10 l154 0 6 28 c3 15 14 65 25 112 18 85 27 181 23 275 -1 28 -4 115 -5
195 -3 120 -7 155 -25 202 -12 32 -22 71 -22 87 0 17 -9 53 -20 81 -11 28 -20
69 -20 91 0 45 -11 72 -47 110 -13 15 -32 57 -44 100 -15 57 -30 85 -61 119
-22 25 -53 65 -69 90 -15 25 -38 51 -50 59 l-22 13 6 -66 c3 -36 16 -87 28
-113 14 -31 21 -64 20 -93 -1 -25 -2 -54 -3 -65 0 -68 -32 -105 -89 -105 -52
0 -89 34 -139 128 -23 42 -50 86 -60 97 -10 11 -50 68 -90 128 -40 59 -76 107
-80 107 -4 0 -34 27 -66 61 -32 33 -86 81 -119 107 -71 55 -263 167 -314 183
-20 6 -61 26 -91 45 -30 18 -91 42 -135 54 -43 12 -88 28 -100 36 -27 18 -447
17 -560 -2z m357 -180 c58 -28 70 -45 98 -135 13 -44 38 -68 110 -106 136 -72
215 -139 239 -204 7 -19 17 -42 22 -51 15 -29 10 -62 -13 -106 -60 -110 -171
-178 -221 -136 -13 12 -17 13 -10 3 25 -32 -26 -14 -68 24 -26 25 -49 37 -68
37 -36 0 -107 25 -127 45 -9 8 -22 15 -30 15 -8 0 -14 5 -14 10 0 15 -40 12
-56 -5 -9 -8 -32 -15 -52 -15 -45 0 -52 -5 -80 -51 -12 -20 -36 -42 -52 -49
-51 -21 -54 -96 -5 -118 14 -7 34 -26 43 -42 9 -17 25 -33 35 -36 9 -3 15 -8
13 -12 -2 -4 17 -8 42 -10 49 -3 124 -30 117 -42 -7 -11 48 -20 73 -13 31 8
83 -4 112 -27 l25 -19 -25 5 c-14 2 8 -9 49 -25 41 -17 77 -28 81 -26 18 11
73 -10 98 -37 15 -16 43 -38 64 -48 34 -19 115 -112 132 -155 5 -11 12 -51 17
-90 5 -38 12 -85 15 -104 4 -19 0 -64 -10 -105 -8 -39 -18 -87 -21 -107 -3
-20 -16 -50 -28 -67 -68 -94 -107 -138 -128 -149 -13 -6 -54 -25 -91 -42 -37
-17 -70 -36 -74 -42 -3 -6 -34 -23 -69 -39 -58 -26 -105 -68 -105 -94 0 -6
-11 -28 -25 -49 -18 -25 -33 -37 -50 -37 -13 0 -27 -4 -30 -10 -3 -5 -17 -10
-31 -10 -13 0 -24 5 -24 10 0 6 -28 10 -65 10 -55 0 -68 3 -90 25 -16 17 -25
37 -25 56 0 33 -46 89 -73 89 -20 0 -125 47 -159 72 -16 11 -54 29 -86 40 -45
16 -71 35 -124 89 -38 38 -68 77 -68 87 0 9 18 42 40 72 22 30 46 69 54 87 16
35 42 54 98 74 35 12 39 11 61 -9 13 -12 26 -20 29 -16 7 6 64 -21 88 -41 16
-14 126 -55 220 -83 30 -8 57 -19 58 -24 2 -4 22 -8 43 -8 24 0 38 4 34 10 -3
6 0 10 8 10 8 0 20 6 26 14 13 15 31 20 113 31 44 6 47 8 44 33 -2 15 -4 57
-5 94 -1 55 -5 71 -23 88 -12 11 -28 20 -35 20 -19 0 -94 51 -88 60 9 14 -73
40 -142 45 -37 3 -81 13 -98 22 -16 8 -52 19 -79 24 -29 5 -60 18 -75 33 -29
27 -103 66 -124 66 -18 0 -68 50 -62 60 6 10 -16 28 -58 49 -26 13 -36 28 -52
76 -11 33 -31 82 -44 109 -21 43 -23 55 -16 119 4 40 9 98 11 130 7 116 142
310 256 368 87 44 148 100 178 164 33 71 87 133 126 145 53 17 165 4 226 -26z
m1559 -863 c0 -20 3 -45 5 -56 3 -11 7 -56 9 -100 3 -63 0 -84 -12 -97 -9 -10
-22 -18 -28 -18 -17 0 -28 -30 -12 -31 7 0 7 -3 -2 -6 -9 -4 -2 -10 20 -17 25
-8 35 -18 37 -36 2 -14 8 -29 13 -34 12 -14 12 -89 -1 -81 -6 4 -10 -14 -10
-47 0 -95 -53 -128 -114 -71 -27 25 -28 29 -21 82 5 31 9 79 10 106 1 28 3 60
4 72 0 12 10 31 21 41 20 19 20 19 -5 48 -14 16 -25 34 -25 39 0 6 -9 21 -20
35 -15 20 -20 41 -19 100 0 88 12 110 66 120 57 10 83 -6 84 -49z m-3301 -344
c0 -31 -3 -38 -10 -27 -7 11 -10 -4 -12 -50 -2 -94 -3 -96 -14 -111 -12 -16
-11 -24 4 -62 7 -15 11 -31 10 -35 -1 -4 2 -17 6 -30 10 -30 -8 -52 -44 -52
-35 0 -48 16 -49 60 0 19 -2 44 -4 55 -2 11 0 30 6 42 7 16 5 31 -7 57 -18 38
-22 141 -6 151 6 4 8 11 5 16 -3 5 2 6 11 2 12 -4 15 -3 10 5 -9 15 -1 15 27
1 12 -7 19 -8 15 -4 -9 9 32 34 45 28 4 -2 7 -23 7 -46z m3281 -356 c21 -17
22 -21 10 -50 -10 -24 -20 -31 -40 -31 -57 1 -82 54 -39 84 29 21 41 20 69 -3z
m-3681 -1311 c0 -5 -11 -10 -25 -10 -14 0 -25 5 -25 10 0 6 11 10 25 10 14 0
25 -4 25 -10z m60 0 c0 -5 -4 -10 -10 -10 -5 0 -10 5 -10 10 0 6 5 10 10 10 6
0 10 -4 10 -10z"/>
<path d="M6187 8323 c-14 -13 -7 -50 12 -67 19 -17 20 -17 31 4 19 36 -18 89
-43 63z"/>
<path d="M6598 8233 c7 -3 16 -2 19 1 4 3 -2 6 -13 5 -11 0 -14 -3 -6 -6z"/>
<path d="M6905 7910 c-8 -25 13 -56 71 -104 l46 -39 -7 -52 c-7 -59 1 -105 19
-105 6 0 19 21 29 46 l16 45 -35 51 c-21 32 -32 57 -28 67 16 39 14 50 -16 79
-37 38 -85 44 -95 12z"/>
<path d="M10153 8749 c-23 -4 -65 -19 -95 -32 -29 -14 -72 -33 -95 -43 -23 -9
-45 -25 -48 -33 -4 -9 -6 -89 -6 -179 0 -147 -2 -165 -19 -182 -11 -11 -16
-21 -12 -24 4 -2 18 6 31 20 13 13 28 24 35 24 6 0 38 14 71 31 37 19 86 33
128 39 37 4 78 15 91 23 42 28 66 157 46 252 -21 100 -43 118 -127 104z"/>
<path d="M2493 7911 c-134 -33 -187 -204 -96 -310 85 -100 245 -83 305 32 28
55 28 120 -1 180 -36 74 -128 117 -208 98z"/>
<path d="M2790 7863 c21 -39 27 -43 59 -41 l36 1 -32 4 c-20 3 -34 11 -38 22
-3 10 -15 27 -27 37 -21 18 -21 18 2 -23z"/>
<path d="M9575 7221 c3 -6 -8 -8 -28 -4 -61 10 -108 -27 -349 -270 -126 -127
-239 -242 -251 -256 -12 -14 -72 -71 -132 -125 -61 -55 -123 -112 -139 -128
-17 -15 -33 -28 -37 -28 -4 0 -35 -29 -69 -64 -35 -35 -92 -86 -128 -112 -36
-27 -88 -72 -116 -100 -28 -28 -67 -57 -86 -64 -20 -7 -47 -29 -62 -50 -17
-22 -49 -48 -80 -63 -29 -14 -87 -58 -128 -97 -41 -40 -87 -78 -101 -85 -25
-14 -96 -61 -202 -137 -29 -20 -60 -37 -69 -37 -9 -1 -21 -7 -25 -14 -14 -23
-65 -57 -76 -50 -5 3 -7 1 -4 -4 7 -11 -15 -25 -43 -28 -8 -1 -49 -24 -90 -50
-659 -424 -1403 -735 -2074 -870 -287 -58 -451 -75 -726 -75 l-255 0 3 -57 c2
-32 10 -65 17 -73 11 -12 15 -114 17 -525 l3 -510 26 -66 c37 -97 74 -154 139
-219 74 -74 195 -135 295 -150 47 -7 857 -10 2485 -8 2275 3 2418 4 2474 21
115 34 186 77 277 167 68 67 94 101 122 160 64 134 67 170 67 719 l0 489 -27
6 c-16 4 -219 6 -453 5 -470 -2 -470 -2 -609 62 -155 72 -290 236 -336 409
-82 304 68 628 350 761 122 57 139 59 627 59 l448 0 0 534 c0 318 -4 555 -10
587 -21 110 -104 231 -197 285 -85 50 -151 64 -309 64 -88 0 -143 -4 -139 -9z
m-1227 -1803 c19 -19 17 -2151 -1 -2167 -9 -7 -97 -11 -257 -12 -224 -1 -245
0 -257 17 -10 14 -13 205 -13 995 l0 978 24 18 c13 11 42 25 64 33 23 7 39 17
36 21 -3 5 3 6 12 2 12 -4 15 -3 10 5 -4 7 -2 10 7 6 20 -7 129 35 121 48 -4
6 2 8 16 3 15 -5 20 -4 16 4 -4 6 -2 9 6 6 7 -2 47 9 88 25 84 32 110 36 128
18z m-917 -658 c19 -10 19 -29 19 -753 0 -565 -3 -746 -12 -755 -17 -17 -499
-17 -516 0 -9 9 -12 171 -12 668 0 613 1 658 18 672 26 22 41 28 407 159 60
21 70 22 96 9z m-883 -622 c17 -17 17 -869 0 -886 -17 -17 -499 -17 -516 0
-14 14 -17 724 -3 747 9 13 448 149 487 150 11 1 25 -4 32 -11z m-2072 -79 c3
-6 2 -15 -2 -19 -12 -12 -38 5 -30 19 9 14 23 14 32 0z m0 -80 c10 -17 -13
-36 -27 -22 -12 12 -4 33 11 33 5 0 12 -5 16 -11z m4 -333 c1 -271 15 -332
101 -430 37 -42 50 -76 29 -76 -20 0 -87 70 -113 118 -46 85 -57 156 -57 388
0 116 3 213 6 217 3 3 12 3 20 0 11 -4 14 -45 14 -217z"/>
<path d="M8042 5223 c-51 -20 -89 -39 -85 -42 5 -3 0 -15 -11 -25 -19 -19 -19
-19 -14 2 4 12 2 22 -3 22 -5 0 -9 -379 -9 -925 l0 -925 170 0 170 0 0 933
c-1 1023 3 961 -62 977 -18 4 -40 10 -48 13 -8 4 -57 -10 -108 -30z"/>
<path d="M7148 4577 l-138 -52 0 -597 0 -598 170 0 170 0 0 638 0 639 -25 11
c-14 7 -29 12 -33 11 -4 0 -69 -24 -144 -52z"/>
<path d="M6288 3988 l-168 -51 0 -303 0 -304 170 0 170 0 0 355 c0 195 -1 355
-2 354 -2 0 -78 -24 -170 -51z"/>
<path d="M2138 6867 c28 -32 52 -63 52 -68 0 -5 26 -8 58 -8 57 1 57 2 14 8
-30 5 -55 19 -85 47 -76 71 -93 80 -39 21z"/>
<path d="M1881 6845 c-88 -28 -141 -115 -127 -207 15 -93 93 -160 186 -160 56
0 97 19 138 66 123 141 -19 358 -197 301z"/>
<path d="M2538 6793 c7 -3 16 -2 19 1 4 3 -2 6 -13 5 -11 0 -14 -3 -6 -6z"/>
<path d="M2627 6793 c18 -2 50 -2 70 0 21 2 7 4 -32 4 -38 0 -55 -2 -38 -4z"/>
<path d="M2882 6793 c48 -2 129 -2 180 0 51 1 12 3 -87 3 -99 0 -141 -2 -93
-3z"/>
<path d="M4179 6433 c30 -35 56 -63 58 -63 7 0 -74 95 -94 111 -10 8 7 -14 36
-48z"/>
<path d="M10328 5792 c-8 -27 12 -39 39 -23 17 10 16 10 -4 11 -12 0 -23 7
-25 18 -3 14 -5 12 -10 -6z"/>
<path d="M3084 5680 c24 -38 37 -49 58 -49 15 -1 30 4 33 9 3 6 1 10 -6 10 -7
0 -36 18 -65 40 l-52 39 32 -49z"/>
<path d="M2783 5699 c-48 -14 -111 -91 -119 -146 -22 -145 122 -263 254 -207
77 32 114 91 114 183 0 126 -120 207 -249 170z"/>
<path d="M9338 5660 c-265 -45 -458 -277 -458 -550 0 -91 29 -203 73 -280 66
-118 201 -220 332 -255 82 -21 1208 -22 1268 -1 55 20 104 61 129 109 22 41
23 48 23 427 0 372 -1 387 -21 431 -12 25 -38 58 -57 73 -72 55 -82 56 -686
55 -306 -1 -577 -5 -603 -9z m1256 -155 c3 -8 1 -15 -4 -15 -6 0 -10 7 -10 15
0 8 2 15 4 15 2 0 6 -7 10 -15z m-933 -97 c73 -33 125 -86 162 -165 27 -59 29
-71 25 -147 -4 -71 -9 -91 -39 -147 -77 -140 -229 -201 -387 -154 -95 29 -187
123 -213 218 -73 272 200 511 452 395z"/>
<path d="M9435 5326 c-173 -76 -192 -327 -31 -421 159 -93 351 20 350 206 0
70 -26 129 -76 176 -53 50 -174 69 -243 39z"/>
<path d="M5138 5629 c-22 -12 -23 -52 -4 -68 8 -7 27 -11 43 -9 22 2 29 9 31
29 3 27 -20 59 -41 59 -7 0 -20 -5 -29 -11z"/>
<path d="M4170 5300 c0 -5 7 -10 16 -10 32 0 44 -62 44 -224 0 -201 2 -199
-142 -207 -71 -4 -85 -6 -43 -7 33 -1 90 -5 128 -9 l67 -6 0 237 0 236 -35 0
c-19 0 -35 -4 -35 -10z"/>
<path d="M2156 4924 c22 -21 49 -51 60 -65 17 -25 23 -26 64 -19 34 6 38 8 15
9 -18 1 -42 13 -65 34 -19 19 -53 44 -75 57 l-40 23 41 -39z"/>
<path d="M1895 4876 c-16 -8 -42 -26 -57 -42 -78 -84 -60 -233 34 -287 84 -49
157 -43 225 16 81 72 86 192 9 275 -44 49 -145 67 -211 38z"/>
<path d="M10330 4443 c0 -10 4 -14 8 -8 4 6 11 13 16 18 5 4 2 7 -7 7 -10 0
-17 -8 -17 -17z"/>
</g>
</svg>
